<svg width="18" height="16" viewBox="0 0 18 16" fill="none" xmlns="http://www.w3.org/2000/svg">
<path d="M11.2562 0.257507C11.1303 0.134557 10.97 0.0508247 10.7954 0.0168982C10.6209 -0.0170283 10.4399 0.000374675 10.2755 0.0669066C10.111 0.133439 9.97046 0.246111 9.87157 0.390676C9.77268 0.535241 9.71989 0.705205 9.71989 0.879074V3.95614C7.13481 3.98234 4.66454 5.00309 2.84493 6.79696C1.02531 8.59083 0.0030897 11.0132 0 13.5385V15.1208C9.02069e-05 15.3095 0.062298 15.4932 0.177436 15.6447C0.292574 15.7962 0.454538 15.9075 0.639407 15.9622C0.723863 15.9874 0.811696 16.0001 0.900003 16C1.04816 16 1.19401 15.9642 1.32463 15.8959C1.45525 15.8276 1.5666 15.7289 1.64881 15.6085C5.08667 10.5713 8.38345 10.2116 9.71983 10.3164V13.5385C9.71983 13.7124 9.77262 13.8823 9.87151 14.0269C9.9704 14.1715 10.111 14.2841 10.2754 14.3507C10.4398 14.4172 10.6208 14.4346 10.7954 14.4007C10.9699 14.3667 11.1303 14.283 11.2561 14.1601L17.7363 7.82991C17.8199 7.7483 17.8862 7.6514 17.9315 7.54474C17.9767 7.43809 18 7.32377 18 7.20832C18 7.09287 17.9767 6.97855 17.9315 6.8719C17.8862 6.76524 17.8199 6.66834 17.7363 6.58673L11.2562 0.257507Z" fill="black"/>
</svg>
